<svg width="19" height="17" viewBox="0 0 19 17" fill="none" xmlns="http://www.w3.org/2000/svg">
<path d="M9.5 4.33333C9.5 3.44928 9.14179 2.60143 8.50416 1.97631C7.86654 1.35119 7.00174 1 6.1 1H1V13.5H6.95C7.6263 13.5 8.27491 13.7634 8.75312 14.2322C9.23134 14.7011 9.5 15.337 9.5 16M9.5 4.33333V16M9.5 4.33333C9.5 3.44928 9.85821 2.60143 10.4958 1.97631C11.1335 1.35119 11.9983 1 12.9 1H18V13.5H12.05C11.3737 13.5 10.7251 13.7634 10.2469 14.2322C9.76866 14.7011 9.5 15.337 9.5 16" stroke="currentColor" stroke-opacity="0.8" stroke-width="2" stroke-linecap="round" stroke-linejoin="round"/>
</svg>
