<svg width="18" height="18" viewBox="0 0 18 18" fill="none" xmlns="http://www.w3.org/2000/svg">
<path d="M15.7422 15.75H7.49219C5.01719 15.75 3.77969 15.75 3.01094 14.9813C2.24219 14.2125 2.24219 12.975 2.24219 10.5V2.25" stroke="currentColor" stroke-width="1.3" stroke-linecap="round"/>
<path d="M5.24219 5.25C5.71319 4.4085 6.35294 3.75 7.33694 3.75C11.4972 3.75 9.15944 12.75 13.6294 12.75C14.6202 12.75 15.2562 12.087 15.7422 11.25" stroke="currentColor" stroke-width="1.3" stroke-linecap="round"/>
<path d="M8.25506 8.25312H8.24531M5.25506 8.25312H5.24531M15.7551 8.25312H15.7453M12.7551 8.25312H12.7453M8.26406 8.25312C8.26406 8.2581 8.26209 8.26287 8.25857 8.26638C8.25505 8.2699 8.25029 8.27187 8.24531 8.27187C8.24034 8.27187 8.23557 8.2699 8.23205 8.26638C8.22854 8.26287 8.22656 8.2581 8.22656 8.25312C8.22656 8.24815 8.22854 8.24338 8.23205 8.23987C8.23557 8.23635 8.24034 8.23438 8.24531 8.23438C8.25029 8.23438 8.25505 8.23635 8.25857 8.23987C8.26209 8.24338 8.26406 8.24815 8.26406 8.25312ZM5.26406 8.25312C5.26406 8.2581 5.26209 8.26287 5.25857 8.26638C5.25505 8.2699 5.25029 8.27187 5.24531 8.27187C5.24034 8.27187 5.23557 8.2699 5.23205 8.26638C5.22854 8.26287 5.22656 8.2581 5.22656 8.25312C5.22656 8.24815 5.22854 8.24338 5.23205 8.23987C5.23557 8.23635 5.24034 8.23438 5.24531 8.23438C5.25029 8.23438 5.25505 8.23635 5.25857 8.23987C5.26209 8.24338 5.26406 8.24815 5.26406 8.25312ZM15.7641 8.25312C15.7641 8.2581 15.7621 8.26287 15.7586 8.26638C15.7551 8.2699 15.7503 8.27187 15.7453 8.27187C15.7403 8.27187 15.7356 8.2699 15.7321 8.26638C15.7285 8.26287 15.7266 8.2581 15.7266 8.25312C15.7266 8.24815 15.7285 8.24338 15.7321 8.23987C15.7356 8.23635 15.7403 8.23438 15.7453 8.23438C15.7503 8.23438 15.7551 8.23635 15.7586 8.23987C15.7621 8.24338 15.7641 8.24815 15.7641 8.25312ZM12.7641 8.25312C12.7641 8.2581 12.7621 8.26287 12.7586 8.26638C12.7551 8.2699 12.7503 8.27187 12.7453 8.27187C12.7403 8.27187 12.7356 8.2699 12.7321 8.26638C12.7285 8.26287 12.7266 8.2581 12.7266 8.25312C12.7266 8.24815 12.7285 8.24338 12.7321 8.23987C12.7356 8.23635 12.7403 8.23438 12.7453 8.23438C12.7503 8.23438 12.7551 8.23635 12.7586 8.23987C12.7621 8.24338 12.7641 8.24815 12.7641 8.25312Z" stroke="currentColor" stroke-width="1.3" stroke-linecap="round" stroke-linejoin="round"/>
</svg>
