<svg width="32" height="32" viewBox="0 0 32 32" fill="none" xmlns="http://www.w3.org/2000/svg">
<path fill-rule="evenodd" clip-rule="evenodd" d="M8.37574 5.33594H23.6138C25.297 5.33594 26.6615 6.7004 26.6615 8.38356V23.6217C26.6615 25.3048 25.297 26.6693 23.6138 26.6693H8.37574C6.69259 26.6693 5.32812 25.3048 5.32812 23.6217V8.38356C5.32812 6.7004 6.69259 5.33594 8.37574 5.33594Z" stroke="#151735" stroke-width="1.5" stroke-linecap="round" stroke-linejoin="round"/>
<g clip-path="url(#clip0_3293_22002)">
<path fill-rule="evenodd" clip-rule="evenodd" d="M10.8885 11.9497H9V11.0297H10.8885C11.0997 10.0438 11.9761 9.30469 13.025 9.30469C14.0739 9.30469 14.9502 10.0438 15.1615 11.0297H22.8V11.9497H15.1615C14.9502 12.9355 14.0739 13.6747 13.025 13.6747C11.9761 13.6747 11.0997 12.9355 10.8885 11.9497ZM11.76 11.4897C11.76 10.7911 12.3264 10.2247 13.025 10.2247C13.7236 10.2247 14.29 10.7911 14.29 11.4897C14.29 12.1883 13.7236 12.7547 13.025 12.7547C12.3264 12.7547 11.76 12.1883 11.76 11.4897ZM9 15.438H16.2552C16.4664 14.4522 17.3427 13.713 18.3917 13.713C19.4406 13.713 20.3169 14.4522 20.5282 15.438H22.8V16.358H20.5282C20.3169 17.3439 19.4406 18.083 18.3917 18.083C17.3427 18.083 16.4664 17.3439 16.2552 16.358H9V15.438ZM18.3917 14.633C17.693 14.633 17.1267 15.1994 17.1267 15.898C17.1267 16.5966 17.693 17.163 18.3917 17.163C19.0903 17.163 19.6567 16.5966 19.6567 15.898C19.6567 15.1994 19.0903 14.633 18.3917 14.633ZM15.1615 20.7663C14.9502 21.7522 14.0739 22.4913 13.025 22.4913C11.9761 22.4913 11.0997 21.7522 10.8885 20.7663H9V19.8463H10.8885C11.0997 18.8605 11.9761 18.1213 13.025 18.1213C14.0739 18.1213 14.9502 18.8605 15.1615 19.8463H22.8V20.7663H15.1615ZM11.76 20.3063C11.76 19.6077 12.3264 19.0413 13.025 19.0413C13.7236 19.0413 14.29 19.6077 14.29 20.3063C14.29 21.005 13.7236 21.5713 13.025 21.5713C12.3264 21.5713 11.76 21.005 11.76 20.3063Z" fill="currentColor"/>
</g>
<defs>
<clipPath id="clip0_3293_22002">
<rect width="13.8" height="13.8" fill="white" transform="translate(9 9)"/>
</clipPath>
</defs>
</svg>
